<svg id="logo" clip-rule="evenodd" fill-rule="evenodd" stroke-linejoin="round" stroke-miterlimit="2"
    version="1.1" viewBox="0 0 610 52" xml:space="preserve" xmlns="http://www.w3.org/2000/svg">
    <path
        d="m591.82 30.21v-5.21c9.4-12.52 11.37-14 11.37-17.69 0-1.49-0.56-2.9-2.26-2.9-2.48 0-2.61 2.34-2.61 4.27h-6c-0.45-5.6 2.68-8.68 8.18-8.68 5.17 0 8.71 2.1 8.71 7.69 0 6.71-7.82 14.31-11.06 17.9h11.36v4.62h-17.69zm-309.82-5.88v7.86h21.56v-7.86h-21.56zm-172.17 22.86-2.24-6.71-6 2.1-13.8-35.58v-0.23h-11.71v7h6.14l2.18 5.77-18 30.13h8.6l13-20.55 8.4 22.54 13.43-4.47zm234.48-39.83h-7.56v42.9h28.89v-7h-21.33v-35.9zm120 0v42.9h7.56v-18.86h12.54v-7h-12.57v-10h15.56v-7h-23.12l0.03-0.04zm73 35.89v-11.85h16.23v-7h-16.24v-10h18.63v-7h-26.19v42.9h26.93v-7l-19.36-0.05zm-128.59-36.09v42.9h7.38v-42.9h-7.38zm-388.5-0.16v17.17h-12.65v-17.17h-7.57v42.9h7.57v-18.72h12.65v18.74h7.57v-42.92h-7.57zm139.08 0h-7.56v42.9h28.89v-7h-21.33v-35.9zm66.53 0v42.9h7.57v-18.85h12.53v-7.05h-12.53v-10h15.6v-7h-23.17z"
        fill="#fff" fill-rule="nonzero" />
    <g transform="matrix(.4375 0 0 .4375 564.28 10.9)">
        <g transform="translate(-8 -8)">
            <clipPath id="a">
                <rect width="16" height="16" />
            </clipPath>
            <g clip-path="url(#a)">
                <path
                    d="m1 8c0 3.84 3.16 7 7 7s7-3.16 7-7-3.16-7-7-7-7 3.16-7 7m15 0c0 4.389-3.611 8-8 8s-8-3.611-8-8 3.611-8 8-8 8 3.611 8 8m-10.5-3.998h3.11c1.71 0 2.741 0.973 2.741 2.46 0 1.138-0.667 1.94-1.495 2.24l1.644 3.298h-1.52l-1.46-3.076h-1.684v3.076h-1.336v-7.998zm1.335 1.09v2.777h1.549c0.995 0 1.573-0.463 1.573-1.36 0-0.913-0.596-1.417-1.537-1.417h-1.585z"
                    fill="#fff" fill-rule="nonzero" />
            </g>
        </g>
    </g>
</svg>